<?xml version="1.0" encoding="iso-8859-1"?>
<!-- Generator: Adobe Illustrator 19.0.0, SVG Export Plug-In . SVG Version: 6.00 Build 0)  -->
<svg version="1.1" id="Layer_1" xmlns="http://www.w3.org/2000/svg" xmlns:xlink="http://www.w3.org/1999/xlink" x="0px" y="0px"
	 viewBox="0 0 512 512" style="enable-background:new 0 0 512 512;" xml:space="preserve">
<g>
	<g>
		<g>
			<path d="M256,0C114.618,0,0,114.618,0,256s114.618,256,256,256s256-114.618,256-256S397.382,0,256,0z M256,469.333
				c-117.818,0-213.333-95.515-213.333-213.333S138.182,42.667,256,42.667S469.333,138.182,469.333,256S373.818,469.333,256,469.333
				z"/>
			<path d="M128,213.333c0-11.791,9.542-21.333,21.333-21.333s21.333,9.542,21.333,21.333c0,11.782,9.551,21.333,21.333,21.333
				s21.333-9.551,21.333-21.333c0-35.355-28.645-64-64-64s-64,28.645-64,64c0,11.782,9.551,21.333,21.333,21.333
				C118.449,234.667,128,225.115,128,213.333z"/>
			<path d="M362.667,149.333c-35.355,0-64,28.645-64,64c0,11.782,9.551,21.333,21.333,21.333s21.333-9.551,21.333-21.333
				c0-11.791,9.542-21.333,21.333-21.333S384,201.542,384,213.333c0,11.782,9.551,21.333,21.333,21.333
				c11.782,0,21.333-9.551,21.333-21.333C426.667,177.978,398.022,149.333,362.667,149.333z"/>
			<path d="M255.996,256.006c-60.999,0-117.879,41.261-139.932,99.062c-4.2,11.008,1.319,23.337,12.327,27.537
				s23.337-1.319,27.537-12.327c15.887-41.64,57.194-71.605,100.068-71.605c42.858,0,84.166,29.95,100.072,71.573
				c4.206,11.006,16.537,16.518,27.543,12.313s16.518-16.537,12.313-27.543C373.846,297.243,316.971,256.006,255.996,256.006z"/>
		</g>
	</g>
</g>
<g>
</g>
<g>
</g>
<g>
</g>
<g>
</g>
<g>
</g>
<g>
</g>
<g>
</g>
<g>
</g>
<g>
</g>
<g>
</g>
<g>
</g>
<g>
</g>
<g>
</g>
<g>
</g>
<g>
</g>
</svg>
